<svg xmlns="http://www.w3.org/2000/svg" width="33.683" height="31.211" viewBox="0 0 33.683 31.211">
  <g id="shape-cushion" transform="translate(0.341 0.348)">
    <path id="Path_5750" data-name="Path 5750" d="M256.949,273.884V254.968l5.8-5.8h21.4l5.8,5.8v18.916l-5.8,5.8h-21.4Z" transform="translate(-256.949 -249.169)" fill="none" stroke="#848484" stroke-linecap="round" stroke-linejoin="round" stroke-width="0.5"/>
    <path id="Path_5751" data-name="Path 5751" d="M265.6,277.956V262.047l4.877-4.877h18l4.877,4.877v15.909l-4.877,4.877h-18Z" transform="translate(-262.978 -254.744)" fill="none" stroke="#848484" stroke-linecap="round" stroke-linejoin="round" stroke-width="0.5"/>
    <path id="Path_5752" data-name="Path 5752" d="M275.595,282.658V270.223l3.812-3.812h14.068l3.812,3.812v12.435l-3.812,3.812H279.407Z" transform="translate(-269.941 -261.183)" fill="none" stroke="#848484" stroke-linecap="round" stroke-linejoin="round" stroke-width="0.5"/>
    <line id="Line_158" data-name="Line 158" x2="5.654" y2="3.241" transform="translate(0 5.799)" fill="none" stroke="#848484" stroke-linecap="round" stroke-linejoin="round" stroke-width="0.5"/>
    <line id="Line_159" data-name="Line 159" x2="3.667" y2="5.228" transform="translate(5.799 0)" fill="none" stroke="#848484" stroke-linecap="round" stroke-linejoin="round" stroke-width="0.5"/>
    <line id="Line_160" data-name="Line 160" x1="3.667" y2="5.228" transform="translate(23.534 0)" fill="none" stroke="#848484" stroke-linecap="round" stroke-linejoin="round" stroke-width="0.5"/>
    <line id="Line_161" data-name="Line 161" x1="5.654" y2="3.241" transform="translate(27.346 5.799)" fill="none" stroke="#848484" stroke-linecap="round" stroke-linejoin="round" stroke-width="0.5"/>
    <line id="Line_162" data-name="Line 162" x1="5.654" y1="3.241" transform="translate(27.346 21.475)" fill="none" stroke="#848484" stroke-linecap="round" stroke-linejoin="round" stroke-width="0.5"/>
    <line id="Line_163" data-name="Line 163" x1="3.667" y1="5.228" transform="translate(23.534 25.287)" fill="none" stroke="#848484" stroke-linecap="round" stroke-linejoin="round" stroke-width="0.5"/>
    <line id="Line_164" data-name="Line 164" y1="5.228" x2="3.667" transform="translate(5.799 25.287)" fill="none" stroke="#848484" stroke-linecap="round" stroke-linejoin="round" stroke-width="0.5"/>
    <line id="Line_165" data-name="Line 165" y1="3.241" x2="5.654" transform="translate(0 21.475)" fill="none" stroke="#848484" stroke-linecap="round" stroke-linejoin="round" stroke-width="0.5"/>
  </g>
</svg>
