<svg xmlns="http://www.w3.org/2000/svg" width="33.565" height="32.287" viewBox="0 0 33.565 32.287">
  <g id="shape-round" transform="translate(0.285 0.252)">
    <path id="Path_5770" data-name="Path 5770" d="M89.955,275.053l-8.86-7.271-2.114-11.014,5.622-9.6,10.727-3.7,10.813,3.935,5.839,9.729-1.867,10.97-8.7,7.078Z" transform="translate(-78.981 -243.466)" fill="none" stroke="#848484" stroke-linecap="round" stroke-linejoin="round" stroke-width="0.5"/>
    <path id="Path_5771" data-name="Path 5771" d="M102.458,281.51l-6.519-5.35-1.555-8.1,4.136-7.066,7.893-2.722,7.956,2.9,4.3,7.159-1.373,8.072-6.4,5.208Z" transform="translate(-90.024 -254.078)" fill="none" stroke="#848484" stroke-linecap="round" stroke-linejoin="round" stroke-width="0.5"/>
    <line id="Line_168" data-name="Line 168" x2="0.04" y2="4.189" transform="translate(16.348 0)" fill="none" stroke="#848484" stroke-linecap="round" stroke-linejoin="round" stroke-width="0.5"/>
    <line id="Line_169" data-name="Line 169" x1="2.817" y2="3.15" transform="translate(24.344 3.935)" fill="none" stroke="#848484" stroke-linecap="round" stroke-linejoin="round" stroke-width="0.5"/>
    <line id="Line_170" data-name="Line 170" x1="4.359" y2="0.579" transform="translate(28.641 13.664)" fill="none" stroke="#848484" stroke-linecap="round" stroke-linejoin="round" stroke-width="0.5"/>
    <line id="Line_171" data-name="Line 171" x1="3.866" y1="2.319" transform="translate(27.267 22.315)" fill="none" stroke="#848484" stroke-linecap="round" stroke-linejoin="round" stroke-width="0.5"/>
    <line id="Line_172" data-name="Line 172" x1="1.568" y1="4.189" transform="translate(20.867 27.524)" fill="none" stroke="#848484" stroke-linecap="round" stroke-linejoin="round" stroke-width="0.5"/>
    <line id="Line_173" data-name="Line 173" y1="4.156" x2="1.46" transform="translate(10.974 27.431)" fill="none" stroke="#848484" stroke-linecap="round" stroke-linejoin="round" stroke-width="0.5"/>
    <line id="Line_174" data-name="Line 174" y1="2.235" x2="3.801" transform="translate(2.114 22.081)" fill="none" stroke="#848484" stroke-linecap="round" stroke-linejoin="round" stroke-width="0.5"/>
    <line id="Line_175" data-name="Line 175" x2="4.359" y2="0.675" transform="translate(0 13.303)" fill="none" stroke="#848484" stroke-linecap="round" stroke-linejoin="round" stroke-width="0.5"/>
    <line id="Line_176" data-name="Line 176" x2="2.874" y2="3.212" transform="translate(5.622 3.699)" fill="none" stroke="#848484" stroke-linecap="round" stroke-linejoin="round" stroke-width="0.5"/>
  </g>
</svg>
