<svg xmlns="http://www.w3.org/2000/svg" width="22.87" height="33.707" viewBox="0 0 22.87 33.707">
  <g id="shape-unknow4" transform="translate(0.332 0.353)">
    <path id="Path_5753" data-name="Path 5753" d="M264.659,615.418v-19.43l6.785-6.785h8.635l6.785,6.785v19.43l-6.785,6.785h-8.635Z" transform="translate(-264.659 -589.203)" fill="none" stroke="#848484" stroke-linecap="round" stroke-linejoin="round" stroke-width="0.5"/>
    <g id="Group_9842" data-name="Group 9842" transform="translate(0 0)">
      <path id="Path_5754" data-name="Path 5754" d="M297.583,593.464a5.048,5.048,0,0,1,3.971,2.524h.16V589.2h-8.43v6.785h.328A5.048,5.048,0,0,1,297.583,593.464Z" transform="translate(-286.481 -589.203)" fill="none" stroke="#848484" stroke-linecap="round" stroke-linejoin="round" stroke-width="0.5"/>
      <path id="Path_5755" data-name="Path 5755" d="M301.715,706.276v-6.785h-.16a4.386,4.386,0,0,1-7.942,0h-.328v6.785Z" transform="translate(-286.481 -673.276)" fill="none" stroke="#848484" stroke-linecap="round" stroke-linejoin="round" stroke-width="0.5"/>
      <path id="Path_5756" data-name="Path 5756" d="M269.214,627.463a18.082,18.082,0,0,1,2.249-9.217v-.5h-6.8v19.43h6.8v-.5A18.08,18.08,0,0,1,269.214,627.463Z" transform="translate(-264.659 -610.963)" fill="none" stroke="#848484" stroke-linecap="round" stroke-linejoin="round" stroke-width="0.5"/>
      <path id="Path_5757" data-name="Path 5757" d="M331.166,627.463a17.777,17.777,0,0,1-2.416,9.491v.224h6.971v-19.43H328.75v.224A17.776,17.776,0,0,1,331.166,627.463Z" transform="translate(-313.516 -610.963)" fill="none" stroke="#848484" stroke-linecap="round" stroke-linejoin="round" stroke-width="0.5"/>
      <path id="Path_5758" data-name="Path 5758" d="M328.235,617.972v-.224h-.16C328.128,617.824,328.184,617.893,328.235,617.972Z" transform="translate(-313.001 -610.963)" fill="none" stroke="#848484" stroke-linecap="round" stroke-linejoin="round" stroke-width="0.5"/>
      <path id="Path_5759" data-name="Path 5759" d="M328.075,698.771h.16v-.224C328.184,698.626,328.128,698.7,328.075,698.771Z" transform="translate(-313.001 -672.557)" fill="none" stroke="#848484" stroke-linecap="round" stroke-linejoin="round" stroke-width="0.5"/>
      <path id="Path_5760" data-name="Path 5760" d="M293.285,697.394v.5h.328C293.5,697.732,293.391,697.567,293.285,697.394Z" transform="translate(-286.481 -671.678)" fill="none" stroke="#848484" stroke-linecap="round" stroke-linejoin="round" stroke-width="0.5"/>
      <path id="Path_5761" data-name="Path 5761" d="M293.613,617.748h-.328v.5C293.391,618.073,293.5,617.908,293.613,617.748Z" transform="translate(-286.481 -610.963)" fill="none" stroke="#848484" stroke-linecap="round" stroke-linejoin="round" stroke-width="0.5"/>
      <path id="Path_5762" data-name="Path 5762" d="M294.663,699.491a4.386,4.386,0,0,0,7.942,0" transform="translate(-287.531 -673.276)" fill="none" stroke="#848484" stroke-linecap="round" stroke-linejoin="round" stroke-width="0.5"/>
      <path id="Path_5763" data-name="Path 5763" d="M328.75,637.673a19.849,19.849,0,0,0,0-18.981" transform="translate(-313.516 -611.683)" fill="none" stroke="#848484" stroke-linecap="round" stroke-linejoin="round" stroke-width="0.5"/>
    </g>
    <path id="Path_5764" data-name="Path 5764" d="M343.469,617.748l-4.555,9.715,4.555,9.715" transform="translate(-321.264 -610.963)" fill="none" stroke="#848484" stroke-linecap="round" stroke-linejoin="round" stroke-width="0.5"/>
    <path id="Path_5765" data-name="Path 5765" d="M264.659,617.748l4.556,9.715-4.556,9.715" transform="translate(-264.659 -610.963)" fill="none" stroke="#848484" stroke-linecap="round" stroke-linejoin="round" stroke-width="0.5"/>
    <path id="Path_5766" data-name="Path 5766" d="M301.9,714.37l-4.318-4.261-4.3,4.261" transform="translate(-286.481 -681.37)" fill="none" stroke="#848484" stroke-linecap="round" stroke-linejoin="round" stroke-width="0.5"/>
    <path id="Path_5767" data-name="Path 5767" d="M301.9,589.2l-4.608,4.273-4.008-4.274" transform="translate(-286.481 -589.202)" fill="none" stroke="#848484" stroke-linecap="round" stroke-linejoin="round" stroke-width="0.5"/>
  </g>
</svg>
